<?xml version="1.0" standalone="no"?>
<!DOCTYPE svg PUBLIC "-//W3C//DTD SVG 20010904//EN"
 "http://www.w3.org/TR/2001/REC-SVG-20010904/DTD/svg10.dtd">
<svg version="1.0" xmlns="http://www.w3.org/2000/svg"
 width="1214.000000pt" height="254.000000pt" viewBox="0 0 1214.000000 254.000000"
 preserveAspectRatio="xMidYMid meet">

<g transform="translate(0.000000,254.000000) scale(0.100000,-0.100000)"
fill="#000000" stroke="none">
<path d="M486 2445 c-15 -8 -36 -15 -46 -15 -24 0 -82 -62 -97 -103 -15 -42
-18 -1497 -3 -1497 6 0 10 5 10 10 0 6 6 10 14 10 7 0 25 11 38 25 28 28 105
55 157 55 47 0 112 -20 137 -42 11 -10 26 -18 32 -18 7 0 12 -4 12 -9 0 -5 9
-11 20 -14 19 -5 20 0 20 76 0 45 3 180 7 300 l6 217 -161 0 c-101 0 -162 4
-162 10 0 6 7 10 15 10 17 0 55 35 55 50 0 6 7 10 16 10 8 0 35 14 59 30 24
17 48 30 54 30 5 0 23 14 39 30 17 17 40 30 51 30 20 0 21 5 21 175 l0 175 28
0 c54 0 102 13 102 26 0 11 -17 14 -66 14 l-66 0 7 103 c8 122 0 188 -26 216
-10 11 -19 23 -19 27 0 25 -129 84 -184 84 -22 0 -54 -7 -70 -15z m129 -65 c3
-5 21 -17 39 -25 24 -12 35 -25 40 -47 7 -37 6 -290 -3 -488 -5 -117 -8 -135
-14 -95 -4 28 -12 75 -17 106 -6 30 -10 152 -10 271 l0 215 -39 13 c-51 16
-127 7 -164 -21 -16 -11 -31 -18 -34 -16 -7 8 7 47 17 47 5 0 26 11 46 25 38
26 126 36 139 15z m50 -1371 c19 -7 35 -19 35 -27 0 -9 -6 -12 -16 -8 -34 13
-161 18 -214 8 -30 -6 -56 -9 -58 -7 -1 1 28 13 65 27 73 26 128 28 188 7z"/>
<path d="M840 2235 l0 -35 100 0 100 0 0 -30 c0 -27 3 -30 30 -30 27 0 30 3
30 30 l0 30 630 0 630 0 0 -35 c0 -31 3 -35 25 -35 22 0 25 4 25 35 l0 35 140
0 140 0 0 -84 0 -84 -62 -6 c-35 -3 -112 -10 -173 -14 l-110 -9 105 -2 c58 0
135 -4 173 -8 l67 -6 0 -174 0 -175 33 7 c72 16 67 -7 67 325 l0 300 -975 0
-975 0 0 -35z"/>
<path d="M1022 2000 c0 -14 2 -19 5 -12 2 6 2 18 0 25 -3 6 -5 1 -5 -13z"/>
<path d="M1327 1923 c-12 -11 -8 -23 9 -23 11 0 14 -6 9 -21 -5 -15 -4 -19 4
-15 6 4 11 1 11 -7 0 -8 7 -18 16 -21 22 -8 24 -8 22 6 -2 7 3 13 10 14 26 3
27 5 12 14 -10 6 -21 4 -35 -8 -11 -9 -17 -13 -13 -8 4 5 2 16 -5 25 -10 14
-10 14 4 4 11 -9 18 -10 27 -1 8 8 2 16 -23 30 -39 20 -39 20 -48 11z"/>
<path d="M2320 1540 c0 -55 4 -100 8 -100 5 0 24 -14 43 -31 l34 -30 5 98 c4
84 3 100 -12 116 -10 9 -22 17 -28 17 -5 0 -10 7 -10 15 0 8 -9 15 -20 15 -19
0 -20 -7 -20 -100z"/>
<path d="M938 1547 c-56 -29 -82 -57 -53 -57 13 0 15 -60 15 -440 l0 -440 871
0 872 0 -7 53 c-3 28 -6 150 -6 270 0 126 -4 217 -9 217 -5 0 -23 -12 -39 -28
-63 -60 -91 -82 -116 -93 -14 -7 -26 -16 -26 -20 0 -4 -17 -13 -37 -20 -21 -6
-44 -18 -51 -26 -7 -7 -20 -13 -28 -13 -8 0 -22 -4 -32 -9 -9 -5 -30 -15 -47
-22 -16 -7 -41 -21 -54 -31 -13 -10 -34 -18 -47 -18 -12 0 -26 -4 -29 -10 -3
-5 -19 -10 -36 -10 -16 0 -29 -3 -29 -8 0 -9 -73 -32 -104 -32 -14 0 -31 -6
-38 -13 -7 -8 -31 -17 -53 -21 -22 -4 -44 -11 -50 -16 -5 -4 -52 -10 -104 -14
-52 -4 -103 -11 -113 -17 -27 -15 -313 -39 -460 -39 l-128 0 0 348 0 347 105
-3 c58 -2 105 -7 105 -13 0 -5 20 -9 45 -9 l45 0 0 40 0 40 -45 0 c-38 0 -45
-3 -45 -20 0 -19 -7 -20 -105 -20 l-104 0 -3 88 -3 88 -57 -29z"/>
<path d="M2330 1385 c13 -14 26 -25 28 -25 3 0 -5 11 -18 25 -13 14 -26 25
-28 25 -3 0 5 -11 18 -25z"/>
<path d="M6670 945 l0 -455 80 0 80 0 0 455 0 455 -80 0 -80 0 0 -455z"/>
<path d="M9484 1245 c0 -82 2 -115 3 -72 2 43 2 110 0 150 -1 40 -3 5 -3 -78z"/>
<path d="M3650 930 l0 -440 305 0 306 0 -3 73 -3 72 -220 2 -220 2 -3 115 -3
116 201 0 200 0 0 70 0 70 -200 0 -201 0 3 108 3 107 218 3 217 2 0 70 0 70
-300 0 -300 0 0 -440z"/>
<path d="M5880 930 l0 -440 80 0 80 0 0 149 0 148 143 5 c125 4 148 7 197 29
113 52 164 133 163 264 0 139 -63 226 -191 265 -55 17 -93 20 -268 20 l-204 0
0 -440z m437 277 c18 -10 39 -31 48 -47 22 -42 19 -118 -5 -158 -30 -50 -71
-62 -205 -62 l-115 0 0 146 0 146 123 -4 c91 -3 130 -8 154 -21z"/>
<path d="M2733 1247 l-42 -32 0 -262 -1 -263 50 0 50 0 0 295 c0 162 -3 295
-7 294 -5 0 -27 -15 -50 -32z"/>
<path d="M8534 1238 l-19 -23 23 19 c12 11 22 21 22 23 0 8 -8 2 -26 -19z"/>
<path d="M2197 1095 c-59 -68 -77 -71 -78 -12 -1 23 -3 34 -6 24 -3 -10 -9
-14 -16 -10 -8 4 -7 1 1 -9 9 -11 10 -18 3 -23 -6 -3 -16 -15 -22 -27 -8 -15
-8 -19 0 -14 6 4 11 3 11 -3 0 -5 -9 -13 -20 -16 -11 -3 -20 -11 -20 -16 0 -5
-5 -9 -12 -9 -6 0 -19 -6 -27 -13 -9 -8 -32 -19 -51 -26 -61 -23 -122 -49
-192 -83 -10 -4 -27 -8 -37 -8 -11 0 -23 -5 -27 -11 -3 -6 -15 -9 -25 -6 -11
3 -17 1 -14 -3 3 -5 -1 -11 -7 -13 -7 -3 2 -6 21 -6 34 -1 88 13 123 30 10 5
33 9 52 9 19 0 38 5 41 10 3 6 21 10 38 10 18 0 43 9 57 20 14 11 33 20 43 20
9 0 17 3 17 8 0 7 69 32 90 32 13 0 100 62 100 72 0 4 6 8 14 8 20 0 66 39 66
56 0 8 -6 14 -14 14 -8 0 -16 10 -18 23 -6 42 -40 32 -91 -28z m-87 -55 c0 -5
-4 -10 -10 -10 -5 0 -10 5 -10 10 0 6 5 10 10 10 6 0 10 -4 10 -10z"/>
<path d="M5395 1134 c-60 -15 -90 -29 -120 -56 l-34 -29 -7 35 -6 36 -69 0
-69 0 0 -455 0 -456 75 2 75 2 0 173 c0 155 7 203 23 160 3 -8 31 -26 62 -41
49 -25 64 -27 129 -23 126 8 222 83 258 201 21 69 16 223 -9 278 -29 65 -85
123 -141 147 -50 22 -133 34 -167 26z m54 -134 c46 -13 99 -65 111 -110 27
-97 0 -207 -61 -251 -46 -32 -144 -34 -185 -3 -60 44 -69 67 -69 172 0 77 4
104 18 125 21 33 57 57 100 67 45 11 48 11 86 0z"/>
<path d="M7180 1130 c-53 -9 -157 -48 -165 -60 -4 -7 29 -97 40 -108 2 -2 23
7 47 19 30 16 66 24 124 27 78 4 82 3 113 -24 23 -21 34 -41 38 -69 l5 -40
-124 -1 c-111 0 -129 -3 -180 -26 -115 -53 -150 -187 -75 -292 62 -88 253
-102 341 -25 19 16 36 29 40 29 3 0 6 -16 6 -35 l0 -35 70 0 70 0 0 218 c-1
236 -8 289 -47 341 -50 65 -189 103 -303 81z m170 -356 c32 -7 32 -7 28 -56
-8 -76 -61 -118 -150 -118 -83 0 -132 51 -108 111 24 56 125 84 230 63z"/>
<path d="M7986 1128 c-46 -10 -100 -41 -120 -69 -12 -18 -14 -17 -20 21 l-6
40 -70 0 -70 0 0 -315 0 -315 75 0 75 0 0 194 c0 114 4 206 11 223 15 41 47
70 96 89 40 15 46 16 86 0 69 -26 71 -33 77 -281 l5 -220 78 -3 77 -3 0 230
c0 206 -2 236 -20 284 -11 30 -30 63 -43 75 -49 46 -149 68 -231 50z"/>
<path d="M4362 1088 c13 -18 64 -85 112 -149 l87 -117 -62 -88 c-34 -49 -86
-122 -115 -161 -30 -40 -54 -75 -54 -78 0 -3 39 -5 88 -4 l87 0 71 107 c39 59
75 107 79 107 5 0 41 -48 80 -107 l70 -108 93 0 94 0 -38 53 c-21 28 -75 102
-121 163 l-82 112 110 146 c60 80 109 148 109 151 0 3 -39 4 -87 3 l-87 -3
-64 -90 c-35 -49 -68 -90 -74 -90 -6 0 -38 41 -72 90 l-61 90 -94 3 -94 3 25
-33z"/>
<path d="M1892 960 c0 -19 2 -27 5 -17 2 9 2 25 0 35 -3 9 -5 1 -5 -18z"/>
<path d="M515 853 c-49 -6 -116 -45 -126 -72 -6 -13 -16 -29 -23 -35 -7 -6
-21 -30 -30 -54 -16 -43 -15 -91 6 -147 19 -53 91 -155 109 -155 9 0 19 -7 23
-15 3 -8 12 -15 21 -15 8 0 23 -4 33 -9 59 -30 105 -31 1229 -31 1133 0 1233
2 1233 32 0 4 9 8 19 8 10 0 21 7 25 15 3 8 11 15 18 15 7 0 23 19 36 42 18
35 22 59 22 126 l0 82 -210 0 -210 0 0 -30 0 -30 170 0 170 0 0 -45 c0 -37 -6
-51 -31 -77 -17 -18 -34 -39 -38 -46 -15 -27 -86 -36 -271 -36 -160 1 -747 10
-880 15 l-45 1 54 8 c30 5 280 11 555 15 398 6 505 11 521 21 11 8 27 14 37
14 21 0 26 7 34 58 l7 42 -1092 0 c-721 0 -1091 3 -1091 10 0 6 4 10 9 10 15
0 24 58 16 106 -4 30 -18 59 -43 88 -20 25 -41 45 -45 45 -4 1 -20 10 -35 20
-28 20 -120 33 -177 24z"/>
<path d="M1502 840 c0 -14 2 -19 5 -12 2 6 2 18 0 25 -3 6 -5 1 -5 -13z"/>
</g>
</svg>
